<?xml version="1.0" encoding="UTF-8" standalone="no"?>
<svg
   xmlns:dc="http://purl.org/dc/elements/1.1/"
   xmlns:cc="http://creativecommons.org/ns#"
   xmlns:rdf="http://www.w3.org/1999/02/22-rdf-syntax-ns#"
   xmlns:svg="http://www.w3.org/2000/svg"
   xmlns="http://www.w3.org/2000/svg"
   xmlns:sodipodi="http://sodipodi.sourceforge.net/DTD/sodipodi-0.dtd"
   xmlns:inkscape="http://www.inkscape.org/namespaces/inkscape"
   enable-background="new 0 0 24 24"
   height="24px"
   id="Layer_1"
   version="1.1"
   viewBox="0 0 24 24"
   width="24px"
   xml:space="preserve"
   sodipodi:docname="menuIcon.svg"
   inkscape:version="0.92.1 r15371"><metadata
     id="metadata13"><rdf:RDF><cc:Work
         rdf:about=""><dc:format>image/svg+xml</dc:format><dc:type
           rdf:resource="http://purl.org/dc/dcmitype/StillImage" /><dc:title></dc:title></cc:Work></rdf:RDF></metadata><defs
     id="defs11" /><sodipodi:namedview
     pagecolor="#ffffff"
     bordercolor="#666666"
     borderopacity="1"
     objecttolerance="10"
     gridtolerance="10"
     guidetolerance="10"
     inkscape:pageopacity="0"
     inkscape:pageshadow="2"
     inkscape:window-width="1331"
     inkscape:window-height="829"
     id="namedview9"
     showgrid="false"
     inkscape:zoom="13.906433"
     inkscape:cx="12.406398"
     inkscape:cy="9.0471275"
     inkscape:window-x="415"
     inkscape:window-y="152"
     inkscape:window-maximized="0"
     inkscape:current-layer="Layer_1" /><g
     id="g6"
     transform="translate(0,0.50336415)"><g
       id="g4"><path
         d="M 23.244,17.009 H 0.75 C 0.337,17.009 0,17.369 0,17.81 v 3.421 C 0,21.654 0.337,22 0.75,22 h 22.494 c 0.414,0 0.75,-0.346 0.75,-0.77 v -3.42 c 0,-0.441 -0.336,-0.801 -0.75,-0.801 z m 0,-8 H 0.75 C 0.337,9.009 0,9.369 0,9.81 v 3.421 C 0,13.655 0.337,14 0.75,14 h 22.494 c 0.414,0 0.75,-0.345 0.75,-0.769 V 9.81 c 0,-0.441 -0.336,-0.801 -0.75,-0.801 z m 0,-8 H 0.75 C 0.337,1.009 0,1.369 0,1.81 v 3.42 c 0,0.423 0.337,0.769 0.75,0.769 h 22.494 c 0.414,0 0.75,-0.346 0.75,-0.769 V 1.81 c 0,-0.441 -0.336,-0.801 -0.75,-0.801 z"
         id="path2"
         inkscape:connector-curvature="0" /></g></g></svg>