<svg xmlns="http://www.w3.org/2000/svg" width="1920" height="1080"><path d="M88,-265L463,-218L882,-228Z" fill="#b85b4f" stroke="#b85b4f" stroke-width="1.51"/><path d="M88,-265L882,-228L1503,-260Z" fill="#bf7d79" stroke="#bf7d79" stroke-width="1.51"/><path d="M1456,1242L1345,1270L1690,1250Z" fill="#727272" stroke="#727272" stroke-width="1.51"/><path d="M1345,1270L1217,1313L1690,1250Z" fill="#757575" stroke="#757575" stroke-width="1.51"/><path d="M1742,1249L1690,1250L1888,1281Z" fill="#545454" stroke="#545454" stroke-width="1.51"/><path d="M1690,1250L1217,1313L1888,1281Z" fill="#636363" stroke="#636363" stroke-width="1.51"/><path d="M1503,-260L1741,-183L1989,-234Z" fill="#834a4b" stroke="#834a4b" stroke-width="1.51"/><path d="M1944,90L2093,238L2094,56Z" fill="#895a4c" stroke="#895a4c" stroke-width="1.51"/><path d="M1980,433L2059,571L2119,363Z" fill="#908883" stroke="#908883" stroke-width="1.51"/><path d="M1982,742L2063,870L2126,711Z" fill="#7b7b7b" stroke="#7b7b7b" stroke-width="1.51"/><path d="M2059,571L1982,742L2126,711Z" fill="#858585" stroke="#858585" stroke-width="1.51"/><path d="M2119,363L2059,571L2126,711Z" fill="#898989" stroke="#898989" stroke-width="1.51"/><path d="M2126,711L2063,870L2128,1119Z" fill="#676767" stroke="#676767" stroke-width="1.51"/><path d="M2063,870L2045,999L2128,1119Z" fill="#5c5c5c" stroke="#5c5c5c" stroke-width="1.51"/><path d="M1990,-24L2094,56L2131,-9Z" fill="#7b4139" stroke="#7b4139" stroke-width="1.51"/><path d="M2049,-227L1990,-24L2131,-9Z" fill="#753431" stroke="#753431" stroke-width="1.51"/><path d="M2093,238L2119,363L2131,-9Z" fill="#845e4e" stroke="#845e4e" stroke-width="1.51"/><path d="M2094,56L2093,238L2131,-9Z" fill="#7e4c40" stroke="#7e4c40" stroke-width="1.51"/><path d="M2119,363L2126,711L2131,-9Z" fill="#86746a" stroke="#86746a" stroke-width="1.51"/><path d="M2045,999L1911,1178L2128,1119Z" fill="#525252" stroke="#525252" stroke-width="1.51"/><path d="M1911,1178L2032,1245L2128,1119Z" fill="#444444" stroke="#444444" stroke-width="1.51"/><path d="M2093,238L1980,433L2119,363Z" fill="#8e7a6f" stroke="#8e7a6f" stroke-width="1.51"/><path d="M1989,-234L1990,-24L2049,-227Z" fill="#6e3130" stroke="#6e3130" stroke-width="1.51"/><path d="M1913,217L1980,433L2093,238Z" fill="#967b6e" stroke="#967b6e" stroke-width="1.51"/><path d="M1944,90L1913,217L2093,238Z" fill="#946b5b" stroke="#946b5b" stroke-width="1.51"/><path d="M1990,-24L1944,90L2094,56Z" fill="#864d43" stroke="#864d43" stroke-width="1.51"/><path d="M1883,1030L1911,1178L2045,999Z" fill="#606060" stroke="#606060" stroke-width="1.51"/><path d="M1898,538L1982,742L2059,571Z" fill="#939393" stroke="#939393" stroke-width="1.51"/><path d="M1980,433L1898,538L2059,571Z" fill="#9a9796" stroke="#9a9796" stroke-width="1.51"/><path d="M1880,852L2045,999L2063,870Z" fill="#727272" stroke="#727272" stroke-width="1.51"/><path d="M1982,742L1880,852L2063,870Z" fill="#808080" stroke="#808080" stroke-width="1.51"/><path d="M1880,852L1883,1030L2045,999Z" fill="#727272" stroke="#727272" stroke-width="1.51"/><path d="M1880,852L1835,952L1883,1030Z" fill="#7e7e7e" stroke="#7e7e7e" stroke-width="1.51"/><path d="M1898,538L1811,639L1982,742Z" fill="#9b9b9b" stroke="#9b9b9b" stroke-width="1.51"/><path d="M1989,-234L1791,-75L1990,-24Z" fill="#84403c" stroke="#84403c" stroke-width="1.51"/><path d="M1911,1178L1888,1281L2032,1245Z" fill="#454545" stroke="#454545" stroke-width="1.51"/><path d="M1913,217L1802,399L1980,433Z" fill="#a39085" stroke="#a39085" stroke-width="1.51"/><path d="M1741,-183L1791,-75L1989,-234Z" fill="#854543" stroke="#854543" stroke-width="1.51"/><path d="M1791,-75L1944,90L1990,-24Z" fill="#90534a" stroke="#90534a" stroke-width="1.51"/><path d="M1811,639L1880,852L1982,742Z" fill="#939393" stroke="#939393" stroke-width="1.51"/><path d="M1802,399L1898,538L1980,433Z" fill="#a59c97" stroke="#a59c97" stroke-width="1.51"/><path d="M1811,639L1757,801L1880,852Z" fill="#9a9a9a" stroke="#9a9a9a" stroke-width="1.51"/><path d="M1883,1030L1818,1091L1911,1178Z" fill="#646464" stroke="#646464" stroke-width="1.51"/><path d="M1786,242L1802,399L1913,217Z" fill="#ab8e80" stroke="#ab8e80" stroke-width="1.51"/><path d="M1781,129L1913,217L1944,90Z" fill="#9f7062" stroke="#9f7062" stroke-width="1.51"/><path d="M1791,-75L1781,129L1944,90Z" fill="#9e6357" stroke="#9e6357" stroke-width="1.51"/><path d="M882,-228L1340,-199L1503,-260Z" fill="#b57777" stroke="#b57777" stroke-width="1.51"/><path d="M1742,1249L1888,1281L1911,1178Z" fill="#4f4f4f" stroke="#4f4f4f" stroke-width="1.51"/><path d="M1781,129L1786,242L1913,217Z" fill="#aa8170" stroke="#aa8170" stroke-width="1.51"/><path d="M1802,399L1733,514L1898,538Z" fill="#b0aaa7" stroke="#b0aaa7" stroke-width="1.51"/><path d="M1818,1091L1742,1249L1911,1178Z" fill="#5d5d5d" stroke="#5d5d5d" stroke-width="1.51"/><path d="M273,1331L114,1337L408,1338Z" fill="#7a453a" stroke="#7a453a" stroke-width="1.51"/><path d="M1733,514L1811,639L1898,538Z" fill="#adadad" stroke="#adadad" stroke-width="1.51"/><path d="M1757,801L1835,952L1880,852Z" fill="#8e8e8e" stroke="#8e8e8e" stroke-width="1.51"/><path d="M1835,952L1818,1091L1883,1030Z" fill="#747474" stroke="#747474" stroke-width="1.51"/><path d="M1503,-260L1636,-168L1741,-183Z" fill="#965958" stroke="#965958" stroke-width="1.51"/><path d="M1679,-10L1781,129L1791,-75Z" fill="#a7685e" stroke="#a7685e" stroke-width="1.51"/><path d="M1786,242L1668,368L1802,399Z" fill="#b7a095" stroke="#b7a095" stroke-width="1.51"/><path d="M1582,965L1818,1091L1835,952Z" fill="#848484" stroke="#848484" stroke-width="1.51"/><path d="M1757,801L1582,965L1835,952Z" fill="#959595" stroke="#959595" stroke-width="1.51"/><path d="M1654,280L1668,368L1786,242Z" fill="#bda193" stroke="#bda193" stroke-width="1.51"/><path d="M1605,731L1757,801L1811,639Z" fill="#ababab" stroke="#ababab" stroke-width="1.51"/><path d="M1690,1250L1742,1249L1818,1091Z" fill="#626262" stroke="#626262" stroke-width="1.51"/><path d="M1580,1144L1690,1250L1818,1091Z" fill="#6e6e6e" stroke="#6e6e6e" stroke-width="1.51"/><path d="M1582,965L1580,1144L1818,1091Z" fill="#838383" stroke="#838383" stroke-width="1.51"/><path d="M1588,839L1582,965L1757,801Z" fill="#a4a4a4" stroke="#a4a4a4" stroke-width="1.51"/><path d="M1733,514L1605,731L1811,639Z" fill="#b4b4b4" stroke="#b4b4b4" stroke-width="1.51"/><path d="M1781,129L1634,138L1786,242Z" fill="#b58878" stroke="#b58878" stroke-width="1.51"/><path d="M1668,368L1733,514L1802,399Z" fill="#baaea7" stroke="#baaea7" stroke-width="1.51"/><path d="M1636,-168L1679,-10L1741,-183Z" fill="#a45b57" stroke="#a45b57" stroke-width="1.51"/><path d="M1679,-10L1634,138L1781,129Z" fill="#b47c6e" stroke="#b47c6e" stroke-width="1.51"/><path d="M1634,138L1654,280L1786,242Z" fill="#be9685" stroke="#be9685" stroke-width="1.51"/><path d="M1741,-183L1679,-10L1791,-75Z" fill="#a05a54" stroke="#a05a54" stroke-width="1.51"/><path d="M1617,496L1605,731L1733,514Z" fill="#c1c1c1" stroke="#c1c1c1" stroke-width="1.51"/><path d="M882,-228L1046,-176L1340,-199Z" fill="#c68482" stroke="#c68482" stroke-width="1.51"/><path d="M1668,368L1617,496L1733,514Z" fill="#c2bab5" stroke="#c2bab5" stroke-width="1.51"/><path d="M1605,731L1588,839L1757,801Z" fill="#acacac" stroke="#acacac" stroke-width="1.51"/><path d="M1521,1019L1580,1144L1582,965Z" fill="#929292" stroke="#929292" stroke-width="1.51"/><path d="M1636,-168L1461,-116L1679,-10Z" fill="#b16862" stroke="#b16862" stroke-width="1.51"/><path d="M1580,1144L1456,1242L1690,1250Z" fill="#727272" stroke="#727272" stroke-width="1.51"/><path d="M1533,745L1605,731L1617,496Z" fill="#c1c1c1" stroke="#c1c1c1" stroke-width="1.51"/><path d="M1431,128L1634,138L1679,-10Z" fill="#c2887b" stroke="#c2887b" stroke-width="1.51"/><path d="M1461,-116L1431,128L1679,-10Z" fill="#c27f74" stroke="#c27f74" stroke-width="1.51"/><path d="M1478,490L1533,745L1617,496Z" fill="#cdcdcd" stroke="#cdcdcd" stroke-width="1.51"/><path d="M1634,138L1435,239L1654,280Z" fill="#cba392" stroke="#cba392" stroke-width="1.51"/><path d="M1654,280L1448,369L1668,368Z" fill="#cbb4a9" stroke="#cbb4a9" stroke-width="1.51"/><path d="M1448,369L1617,496L1668,368Z" fill="#ccbfb7" stroke="#ccbfb7" stroke-width="1.51"/><path d="M1448,369L1478,490L1617,496Z" fill="#d4cbc5" stroke="#d4cbc5" stroke-width="1.51"/><path d="M1435,239L1448,369L1654,280Z" fill="#d3b6a8" stroke="#d3b6a8" stroke-width="1.51"/><path d="M1431,128L1435,239L1634,138Z" fill="#d1a190" stroke="#d1a190" stroke-width="1.51"/><path d="M1503,-260L1461,-116L1636,-168Z" fill="#a66563" stroke="#a66563" stroke-width="1.51"/><path d="M1533,745L1588,839L1605,731Z" fill="#b6b6b6" stroke="#b6b6b6" stroke-width="1.51"/><path d="M1461,839L1582,965L1588,839Z" fill="#adadad" stroke="#adadad" stroke-width="1.51"/><path d="M1046,-176L1212,-163L1340,-199Z" fill="#c4807d" stroke="#c4807d" stroke-width="1.51"/><path d="M1478,490L1343,569L1533,745Z" fill="#d5d5d5" stroke="#d5d5d5" stroke-width="1.51"/><path d="M1521,1019L1448,1157L1580,1144Z" fill="#8a8a8a" stroke="#8a8a8a" stroke-width="1.51"/><path d="M1448,1157L1456,1242L1580,1144Z" fill="#7f7f7f" stroke="#7f7f7f" stroke-width="1.51"/><path d="M1461,839L1521,1019L1582,965Z" fill="#a6a6a6" stroke="#a6a6a6" stroke-width="1.51"/><path d="M1533,745L1461,839L1588,839Z" fill="#b7b7b7" stroke="#b7b7b7" stroke-width="1.51"/><path d="M1461,839L1282,958L1521,1019Z" fill="#b0b0b0" stroke="#b0b0b0" stroke-width="1.51"/><path d="M1289,746L1461,839L1533,745Z" fill="#c5c5c5" stroke="#c5c5c5" stroke-width="1.51"/><path d="M1343,569L1289,746L1533,745Z" fill="#d2d2d2" stroke="#d2d2d2" stroke-width="1.51"/><path d="M463,-218L617,-198L882,-228Z" fill="#c47167" stroke="#c47167" stroke-width="1.51"/><path d="M1289,746L1335,825L1461,839Z" fill="#c7c7c7" stroke="#c7c7c7" stroke-width="1.51"/><path d="M1279,-75L1431,128L1461,-116Z" fill="#cd887e" stroke="#cd887e" stroke-width="1.51"/><path d="M1340,-199L1461,-116L1503,-260Z" fill="#af6d6c" stroke="#af6d6c" stroke-width="1.51"/><path d="M1319,1118L1448,1157L1521,1019Z" fill="#959595" stroke="#959595" stroke-width="1.51"/><path d="M1282,958L1319,1118L1521,1019Z" fill="#a5a5a5" stroke="#a5a5a5" stroke-width="1.51"/><path d="M1279,-75L1288,95L1431,128Z" fill="#d8988b" stroke="#d8988b" stroke-width="1.51"/><path d="M1335,825L1282,958L1461,839Z" fill="#c0c0c0" stroke="#c0c0c0" stroke-width="1.51"/><path d="M1448,369L1337,438L1478,490Z" fill="#ddd2cb" stroke="#ddd2cb" stroke-width="1.51"/><path d="M1337,438L1343,569L1478,490Z" fill="#e0dcd9" stroke="#e0dcd9" stroke-width="1.51"/><path d="M1035,1296L934,1327L1217,1313Z" fill="#868686" stroke="#868686" stroke-width="1.51"/><path d="M1431,128L1341,222L1435,239Z" fill="#ddb09e" stroke="#ddb09e" stroke-width="1.51"/><path d="M1435,239L1341,222L1448,369Z" fill="#debdae" stroke="#debdae" stroke-width="1.51"/><path d="M1448,1157L1345,1270L1456,1242Z" fill="#7f7f7f" stroke="#7f7f7f" stroke-width="1.51"/><path d="M1340,-199L1279,-75L1461,-116Z" fill="#c47974" stroke="#c47974" stroke-width="1.51"/><path d="M1239,349L1337,438L1341,222Z" fill="#e7cfc3" stroke="#e7cfc3" stroke-width="1.51"/><path d="M1319,1118L1345,1270L1448,1157Z" fill="#8a8a8a" stroke="#8a8a8a" stroke-width="1.51"/><path d="M1341,222L1337,438L1448,369Z" fill="#e1cabf" stroke="#e1cabf" stroke-width="1.51"/><path d="M1288,95L1341,222L1431,128Z" fill="#deab9a" stroke="#deab9a" stroke-width="1.51"/><path d="M1279,-75L1188,-9L1288,95Z" fill="#db978b" stroke="#db978b" stroke-width="1.51"/><path d="M1167,1101L1217,1313L1319,1118Z" fill="#959595" stroke="#959595" stroke-width="1.51"/><path d="M1282,958L1214,1045L1319,1118Z" fill="#acacac" stroke="#acacac" stroke-width="1.51"/><path d="M1212,-163L1279,-75L1340,-199Z" fill="#c77e79" stroke="#c77e79" stroke-width="1.51"/><path d="M1154,236L1239,349L1341,222Z" fill="#ebc9b9" stroke="#ebc9b9" stroke-width="1.51"/><path d="M1288,95L1177,116L1341,222Z" fill="#e4b09f" stroke="#e4b09f" stroke-width="1.51"/><path d="M1177,116L1154,236L1341,222Z" fill="#ebbdab" stroke="#ebbdab" stroke-width="1.51"/><path d="M1181,684L1289,746L1343,569Z" fill="#dedede" stroke="#dedede" stroke-width="1.51"/><path d="M1203,540L1181,684L1343,569Z" fill="#e6e6e6" stroke="#e6e6e6" stroke-width="1.51"/><path d="M1337,438L1203,540L1343,569Z" fill="#e8e5e4" stroke="#e8e5e4" stroke-width="1.51"/><path d="M1319,1118L1217,1313L1345,1270Z" fill="#868686" stroke="#868686" stroke-width="1.51"/><path d="M1131,893L1282,958L1335,825Z" fill="#c5c5c5" stroke="#c5c5c5" stroke-width="1.51"/><path d="M1239,349L1203,540L1337,438Z" fill="#ebe0da" stroke="#ebe0da" stroke-width="1.51"/><path d="M1289,746L1131,893L1335,825Z" fill="#cecece" stroke="#cecece" stroke-width="1.51"/><path d="M1214,1045L1167,1101L1319,1118Z" fill="#a6a6a6" stroke="#a6a6a6" stroke-width="1.51"/><path d="M1188,-9L1177,116L1288,95Z" fill="#e3a496" stroke="#e3a496" stroke-width="1.51"/><path d="M1181,684L1131,893L1289,746Z" fill="#d8d8d8" stroke="#d8d8d8" stroke-width="1.51"/><path d="M1131,893L1214,1045L1282,958Z" fill="#bdbdbd" stroke="#bdbdbd" stroke-width="1.51"/><path d="M617,-198L730,-196L882,-228Z" fill="#c87b73" stroke="#c87b73" stroke-width="1.51"/><path d="M1212,-163L1188,-9L1279,-75Z" fill="#d58a82" stroke="#d58a82" stroke-width="1.51"/><path d="M1059,803L1131,893L1181,684Z" fill="#dadada" stroke="#dadada" stroke-width="1.51"/><path d="M1167,1101L1035,1296L1217,1313Z" fill="#909090" stroke="#909090" stroke-width="1.51"/><path d="M1154,236L1057,252L1239,349Z" fill="#f2d1c2" stroke="#f2d1c2" stroke-width="1.51"/><path d="M1057,252L1062,492L1239,349Z" fill="#f4e1d6" stroke="#f4e1d6" stroke-width="1.51"/><path d="M1062,492L1203,540L1239,349Z" fill="#f2e9e4" stroke="#f2e9e4" stroke-width="1.51"/><path d="M1057,252L986,420L1062,492Z" fill="#fae9e0" stroke="#fae9e0" stroke-width="1.51"/><path d="M1046,-176L1044,-12L1188,-9Z" fill="#e0958d" stroke="#e0958d" stroke-width="1.51"/><path d="M1028,637L1181,684L1203,540Z" fill="#ececec" stroke="#ececec" stroke-width="1.51"/><path d="M1046,-176L1188,-9L1212,-163Z" fill="#d88a84" stroke="#d88a84" stroke-width="1.51"/><path d="M1131,893L1053,1003L1214,1045Z" fill="#c0c0c0" stroke="#c0c0c0" stroke-width="1.51"/><path d="M1053,1003L1167,1101L1214,1045Z" fill="#b3b3b3" stroke="#b3b3b3" stroke-width="1.51"/><path d="M1037,69L1177,116L1188,-9Z" fill="#e8a89a" stroke="#e8a89a" stroke-width="1.51"/><path d="M1062,492L1028,637L1203,540Z" fill="#f4f4f4" stroke="#f4f4f4" stroke-width="1.51"/><path d="M987,1101L1035,1296L1167,1101Z" fill="#a2a2a2" stroke="#a2a2a2" stroke-width="1.51"/><path d="M1057,252L1154,236L1177,116Z" fill="#f2c5b3" stroke="#f2c5b3" stroke-width="1.51"/><path d="M1044,-12L1037,69L1188,-9Z" fill="#e7a397" stroke="#e7a397" stroke-width="1.51"/><path d="M1037,69L1057,252L1177,116Z" fill="#f1bdac" stroke="#f1bdac" stroke-width="1.51"/><path d="M1028,637L1059,803L1181,684Z" fill="#e6e6e6" stroke="#e6e6e6" stroke-width="1.51"/><path d="M1053,1003L987,1101L1167,1101Z" fill="#b4b4b4" stroke="#b4b4b4" stroke-width="1.51"/><path d="M1059,803L1053,1003L1131,893Z" fill="#d0d0d0" stroke="#d0d0d0" stroke-width="1.51"/><path d="M876,209L831,338L986,420Z" fill="#fee0d0" stroke="#fee0d0" stroke-width="1.51"/><path d="M987,1101L860,1150L1035,1296Z" fill="#a5a5a5" stroke="#a5a5a5" stroke-width="1.51"/><path d="M860,1150L934,1327L1035,1296Z" fill="#969595" stroke="#969595" stroke-width="1.51"/><path d="M850,136L876,209L1037,69Z" fill="#f9c0ae" stroke="#f9c0ae" stroke-width="1.51"/><path d="M881,-89L1044,-12L1046,-176Z" fill="#e4978f" stroke="#e4978f" stroke-width="1.51"/><path d="M928,819L831,975L1053,1003Z" fill="#d2d0cf" stroke="#d2d0cf" stroke-width="1.51"/><path d="M1037,69L876,209L1057,252Z" fill="#f9c9b7" stroke="#f9c9b7" stroke-width="1.51"/><path d="M876,209L986,420L1057,252Z" fill="#feded0" stroke="#feded0" stroke-width="1.51"/><path d="M928,819L1053,1003L1059,803Z" fill="#d8d8d8" stroke="#d8d8d8" stroke-width="1.51"/><path d="M1028,637L928,819L1059,803Z" fill="#e7e7e7" stroke="#e7e7e7" stroke-width="1.51"/><path d="M907,594L1028,637L1062,492Z" fill="#f9f9f9" stroke="#f9f9f9" stroke-width="1.51"/><path d="M986,420L907,594L1062,492Z" fill="#fef9f7" stroke="#fef9f7" stroke-width="1.51"/><path d="M858,669L928,819L1028,637Z" fill="#efedec" stroke="#efedec" stroke-width="1.51"/><path d="M831,975L987,1101L1053,1003Z" fill="#c3c3c2" stroke="#c3c3c2" stroke-width="1.51"/><path d="M881,-89L1037,69L1044,-12Z" fill="#eca599" stroke="#eca599" stroke-width="1.51"/><path d="M882,-228L881,-89L1046,-176Z" fill="#d78d89" stroke="#d78d89" stroke-width="1.51"/><path d="M881,-89L850,136L1037,69Z" fill="#f1ac9d" stroke="#f1ac9d" stroke-width="1.51"/><path d="M907,594L858,669L1028,637Z" fill="#f6f4f2" stroke="#f6f4f2" stroke-width="1.51"/><path d="M786,1273L608,1335L934,1327Z" fill="#8c8079" stroke="#8c8079" stroke-width="1.51"/><path d="M831,338L907,594L986,420Z" fill="#fff1e9" stroke="#fff1e9" stroke-width="1.51"/><path d="M831,975L860,1150L987,1101Z" fill="#b9b4b2" stroke="#b9b4b2" stroke-width="1.51"/><path d="M711,421L737,554L831,338Z" fill="#fee5d6" stroke="#fee5d6" stroke-width="1.51"/><path d="M735,-52L850,136L881,-89Z" fill="#ec9e8d" stroke="#ec9e8d" stroke-width="1.51"/><path d="M831,338L737,554L907,594Z" fill="#fff0e7" stroke="#fff0e7" stroke-width="1.51"/><path d="M769,943L831,975L928,819Z" fill="#d5cdc8" stroke="#d5cdc8" stroke-width="1.51"/><path d="M752,820L769,943L928,819Z" fill="#ddd2cc" stroke="#ddd2cc" stroke-width="1.51"/><path d="M858,669L752,820L928,819Z" fill="#e8dfda" stroke="#e8dfda" stroke-width="1.51"/><path d="M860,1150L786,1273L934,1327Z" fill="#98918d" stroke="#98918d" stroke-width="1.51"/><path d="M778,272L831,338L876,209Z" fill="#fdd2be" stroke="#fdd2be" stroke-width="1.51"/><path d="M730,-196L881,-89L882,-228Z" fill="#d4867d" stroke="#d4867d" stroke-width="1.51"/><path d="M737,554L858,669L907,594Z" fill="#f9f0ea" stroke="#f9f0ea" stroke-width="1.51"/><path d="M735,-52L707,140L850,136Z" fill="#f1a891" stroke="#f1a891" stroke-width="1.51"/><path d="M831,975L706,1097L860,1150Z" fill="#b9aea8" stroke="#b9aea8" stroke-width="1.51"/><path d="M730,-196L735,-52L881,-89Z" fill="#e0887b" stroke="#e0887b" stroke-width="1.51"/><path d="M850,136L778,272L876,209Z" fill="#fbc7b1" stroke="#fbc7b1" stroke-width="1.51"/><path d="M707,140L778,272L850,136Z" fill="#f9bfa6" stroke="#f9bfa6" stroke-width="1.51"/><path d="M703,639L752,820L858,669Z" fill="#efe1d9" stroke="#efe1d9" stroke-width="1.51"/><path d="M737,554L703,639L858,669Z" fill="#f7e9e1" stroke="#f7e9e1" stroke-width="1.51"/><path d="M706,1097L786,1273L860,1150Z" fill="#a69a93" stroke="#a69a93" stroke-width="1.51"/><path d="M769,943L706,1097L831,975Z" fill="#c6b8b0" stroke="#c6b8b0" stroke-width="1.51"/><path d="M778,272L711,421L831,338Z" fill="#fddac6" stroke="#fddac6" stroke-width="1.51"/><path d="M625,274L630,394L711,421Z" fill="#fdd1bb" stroke="#fdd1bb" stroke-width="1.51"/><path d="M625,274L711,421L778,272Z" fill="#fcd1b9" stroke="#fcd1b9" stroke-width="1.51"/><path d="M707,140L625,274L778,272Z" fill="#fac1a6" stroke="#fac1a6" stroke-width="1.51"/><path d="M706,1097L604,1180L786,1273Z" fill="#a49288" stroke="#a49288" stroke-width="1.51"/><path d="M604,1180L608,1335L786,1273Z" fill="#958075" stroke="#958075" stroke-width="1.51"/><path d="M584,1008L706,1097L769,943Z" fill="#c4afa5" stroke="#c4afa5" stroke-width="1.51"/><path d="M752,820L566,857L769,943Z" fill="#dbc7bd" stroke="#dbc7bd" stroke-width="1.51"/><path d="M703,639L566,857L752,820Z" fill="#e7d1c5" stroke="#e7d1c5" stroke-width="1.51"/><path d="M566,857L584,1008L769,943Z" fill="#d0b7aa" stroke="#d0b7aa" stroke-width="1.51"/><path d="M540,642L566,857L703,639Z" fill="#eed0c1" stroke="#eed0c1" stroke-width="1.51"/><path d="M539,119L707,140L735,-52Z" fill="#ee9c83" stroke="#ee9c83" stroke-width="1.51"/><path d="M538,-70L539,119L735,-52Z" fill="#e68972" stroke="#e68972" stroke-width="1.51"/><path d="M730,-196L617,-198L735,-52Z" fill="#d67c6f" stroke="#d67c6f" stroke-width="1.51"/><path d="M617,-198L538,-70L735,-52Z" fill="#dc7b6a" stroke="#dc7b6a" stroke-width="1.51"/><path d="M531,556L703,639L737,554Z" fill="#fbe2d6" stroke="#fbe2d6" stroke-width="1.51"/><path d="M711,421L630,394L737,554Z" fill="#fee1d0" stroke="#fee1d0" stroke-width="1.51"/><path d="M630,394L531,556L737,554Z" fill="#fedfcf" stroke="#fedfcf" stroke-width="1.51"/><path d="M531,556L540,642L703,639Z" fill="#f7d7c9" stroke="#f7d7c9" stroke-width="1.51"/><path d="M539,119L625,274L707,140Z" fill="#f6af91" stroke="#f6af91" stroke-width="1.51"/><path d="M584,1008L604,1180L706,1097Z" fill="#b59b8f" stroke="#b59b8f" stroke-width="1.51"/><path d="M584,1008L388,1130L604,1180Z" fill="#b18e7e" stroke="#b18e7e" stroke-width="1.51"/><path d="M604,1180L408,1338L608,1335Z" fill="#8f6f60" stroke="#8f6f60" stroke-width="1.51"/><path d="M539,119L436,237L625,274Z" fill="#f6ab89" stroke="#f6ab89" stroke-width="1.51"/><path d="M386,376L531,556L630,394Z" fill="#fccbb4" stroke="#fccbb4" stroke-width="1.51"/><path d="M625,274L436,237L630,394Z" fill="#f9bda1" stroke="#f9bda1" stroke-width="1.51"/><path d="M436,237L386,376L630,394Z" fill="#f9ba9c" stroke="#f9ba9c" stroke-width="1.51"/><path d="M386,376L393,502L531,556Z" fill="#fac5b0" stroke="#fac5b0" stroke-width="1.51"/><path d="M540,642L398,694L566,857Z" fill="#ebc2b1" stroke="#ebc2b1" stroke-width="1.51"/><path d="M463,-218L538,-70L617,-198Z" fill="#cd695a" stroke="#cd695a" stroke-width="1.51"/><path d="M398,694L402,835L566,857Z" fill="#e2b5a3" stroke="#e2b5a3" stroke-width="1.51"/><path d="M388,1130L408,1338L604,1180Z" fill="#9b7363" stroke="#9b7363" stroke-width="1.51"/><path d="M566,857L395,967L584,1008Z" fill="#cea898" stroke="#cea898" stroke-width="1.51"/><path d="M538,-70L429,140L539,119Z" fill="#e8896d" stroke="#e8896d" stroke-width="1.51"/><path d="M395,967L388,1130L584,1008Z" fill="#be9382" stroke="#be9382" stroke-width="1.51"/><path d="M88,-265L308,-167L463,-218Z" fill="#b0413d" stroke="#b0413d" stroke-width="1.51"/><path d="M399,-80L429,140L538,-70Z" fill="#df775f" stroke="#df775f" stroke-width="1.51"/><path d="M429,140L436,237L539,119Z" fill="#f09b79" stroke="#f09b79" stroke-width="1.51"/><path d="M402,835L395,967L566,857Z" fill="#d6aa98" stroke="#d6aa98" stroke-width="1.51"/><path d="M463,-218L399,-80L538,-70Z" fill="#d36453" stroke="#d36453" stroke-width="1.51"/><path d="M531,556L398,694L540,642Z" fill="#f5cab9" stroke="#f5cab9" stroke-width="1.51"/><path d="M393,502L398,694L531,556Z" fill="#f8c8b6" stroke="#f8c8b6" stroke-width="1.51"/><path d="M399,-80L336,93L429,140Z" fill="#e0775e" stroke="#e0775e" stroke-width="1.51"/><path d="M388,1130L264,1166L408,1338Z" fill="#966557" stroke="#966557" stroke-width="1.51"/><path d="M308,-167L399,-80L463,-218Z" fill="#c6564a" stroke="#c6564a" stroke-width="1.51"/><path d="M301,977L388,1130L395,967Z" fill="#bb8879" stroke="#bb8879" stroke-width="1.51"/><path d="M393,502L254,579L398,694Z" fill="#f2baaa" stroke="#f2baaa" stroke-width="1.51"/><path d="M304,856L395,967L402,835Z" fill="#d39e8e" stroke="#d39e8e" stroke-width="1.51"/><path d="M398,694L290,743L402,835Z" fill="#e2ad9d" stroke="#e2ad9d" stroke-width="1.51"/><path d="M264,1166L273,1331L408,1338Z" fill="#885548" stroke="#885548" stroke-width="1.51"/><path d="M257,277L386,376L436,237Z" fill="#f1a286" stroke="#f1a286" stroke-width="1.51"/><path d="M429,140L336,93L436,237Z" fill="#eb8f70" stroke="#eb8f70" stroke-width="1.51"/><path d="M336,93L257,277L436,237Z" fill="#ec9071" stroke="#ec9071" stroke-width="1.51"/><path d="M245,-60L336,93L399,-80Z" fill="#d66250" stroke="#d66250" stroke-width="1.51"/><path d="M386,376L235,369L393,502Z" fill="#f4b19a" stroke="#f4b19a" stroke-width="1.51"/><path d="M304,856L301,977L395,967Z" fill="#c99283" stroke="#c99283" stroke-width="1.51"/><path d="M290,743L304,856L402,835Z" fill="#daa293" stroke="#daa293" stroke-width="1.51"/><path d="M301,977L264,1166L388,1130Z" fill="#ac7769" stroke="#ac7769" stroke-width="1.51"/><path d="M254,579L290,743L398,694Z" fill="#e9ae9f" stroke="#e9ae9f" stroke-width="1.51"/><path d="M308,-167L245,-60L399,-80Z" fill="#cc5145" stroke="#cc5145" stroke-width="1.51"/><path d="M235,369L254,579L393,502Z" fill="#f4b2a0" stroke="#f4b2a0" stroke-width="1.51"/><path d="M257,277L235,369L386,376Z" fill="#efa087" stroke="#efa087" stroke-width="1.51"/><path d="M254,579L183,669L290,743Z" fill="#e7a597" stroke="#e7a597" stroke-width="1.51"/><path d="M161,985L264,1166L301,977Z" fill="#b27568" stroke="#b27568" stroke-width="1.51"/><path d="M163,126L257,277L336,93Z" fill="#e27c61" stroke="#e27c61" stroke-width="1.51"/><path d="M245,-60L163,126L336,93Z" fill="#d8634f" stroke="#d8634f" stroke-width="1.51"/><path d="M235,369L91,441L254,579Z" fill="#eda292" stroke="#eda292" stroke-width="1.51"/><path d="M163,126L161,260L257,277Z" fill="#e37f65" stroke="#e37f65" stroke-width="1.51"/><path d="M290,743L144,791L304,856Z" fill="#d8988b" stroke="#d8988b" stroke-width="1.51"/><path d="M161,985L301,977L304,856Z" fill="#c48779" stroke="#c48779" stroke-width="1.51"/><path d="M88,-265L245,-60L308,-167Z" fill="#b73a38" stroke="#b73a38" stroke-width="1.51"/><path d="M264,1166L114,1337L273,1331Z" fill="#83493f" stroke="#83493f" stroke-width="1.51"/><path d="M144,791L161,985L304,856Z" fill="#cc8a7e" stroke="#cc8a7e" stroke-width="1.51"/><path d="M93,1190L114,1337L264,1166Z" fill="#884b42" stroke="#884b42" stroke-width="1.51"/><path d="M91,441L112,578L254,579Z" fill="#eda599" stroke="#eda599" stroke-width="1.51"/><path d="M183,669L144,791L290,743Z" fill="#dd9a8e" stroke="#dd9a8e" stroke-width="1.51"/><path d="M81,-43L163,126L245,-60Z" fill="#cd5043" stroke="#cd5043" stroke-width="1.51"/><path d="M88,-265L81,-43L245,-60Z" fill="#bc3234" stroke="#bc3234" stroke-width="1.51"/><path d="M161,985L93,1190L264,1166Z" fill="#a06157" stroke="#a06157" stroke-width="1.51"/><path d="M161,260L235,369L257,277Z" fill="#e98f77" stroke="#e98f77" stroke-width="1.51"/><path d="M112,578L183,669L254,579Z" fill="#e9a397" stroke="#e9a397" stroke-width="1.51"/><path d="M161,260L91,441L235,369Z" fill="#e8927e" stroke="#e8927e" stroke-width="1.51"/><path d="M-32,-159L81,-43L88,-265Z" fill="#ad1f2d" stroke="#ad1f2d" stroke-width="1.51"/><path d="M11,418L91,441L161,260Z" fill="#e38c7b" stroke="#e38c7b" stroke-width="1.51"/><path d="M-6,986L93,1190L161,985Z" fill="#a6615a" stroke="#a6615a" stroke-width="1.51"/><path d="M144,791L37,800L161,985Z" fill="#c98279" stroke="#c98279" stroke-width="1.51"/><path d="M37,800L-6,986L161,985Z" fill="#bb736c" stroke="#bb736c" stroke-width="1.51"/><path d="M81,-43L25,-15L163,126Z" fill="#c9493f" stroke="#c9493f" stroke-width="1.51"/><path d="M-13,229L161,260L163,126Z" fill="#dc725b" stroke="#dc725b" stroke-width="1.51"/><path d="M30,675L144,791L183,669Z" fill="#da9289" stroke="#da9289" stroke-width="1.51"/><path d="M112,578L30,675L183,669Z" fill="#e1988e" stroke="#e1988e" stroke-width="1.51"/><path d="M30,675L37,800L144,791Z" fill="#d28880" stroke="#d28880" stroke-width="1.51"/><path d="M-13,229L11,418L161,260Z" fill="#de7c6a" stroke="#de7c6a" stroke-width="1.51"/><path d="M25,-15L-53,47L163,126Z" fill="#c94940" stroke="#c94940" stroke-width="1.51"/><path d="M-53,47L-13,229L163,126Z" fill="#d05a4b" stroke="#d05a4b" stroke-width="1.51"/><path d="M-6,986L-49,1175L93,1190Z" fill="#954e4a" stroke="#954e4a" stroke-width="1.51"/><path d="M11,418L-67,546L91,441Z" fill="#e28e84" stroke="#e28e84" stroke-width="1.51"/><path d="M-49,1175L-67,1311L93,1190Z" fill="#7e3a38" stroke="#7e3a38" stroke-width="1.51"/><path d="M91,441L-67,546L112,578Z" fill="#e6978f" stroke="#e6978f" stroke-width="1.51"/><path d="M93,1190L-67,1311L114,1337Z" fill="#773632" stroke="#773632" stroke-width="1.51"/><path d="M-67,546L30,675L112,578Z" fill="#e0928b" stroke="#e0928b" stroke-width="1.51"/><path d="M-32,-159L25,-15L81,-43Z" fill="#ba2b31" stroke="#ba2b31" stroke-width="1.51"/><path d="M-190,-195L-32,-159L88,-265Z" fill="#970f27" stroke="#970f27" stroke-width="1.51"/><path d="M-139,1098L-49,1175L-6,986Z" fill="#904e4c" stroke="#904e4c" stroke-width="1.51"/><path d="M-13,229L-185,440L11,418Z" fill="#d37c70" stroke="#d37c70" stroke-width="1.51"/><path d="M-186,877L-6,986L37,800Z" fill="#b46e6a" stroke="#b46e6a" stroke-width="1.51"/><path d="M30,675L-181,655L37,800Z" fill="#cd837e" stroke="#cd837e" stroke-width="1.51"/><path d="M-181,655L-186,877L37,800Z" fill="#b87675" stroke="#b87675" stroke-width="1.51"/><path d="M-53,47L-157,121L-13,229Z" fill="#c15146" stroke="#c15146" stroke-width="1.51"/><path d="M-32,-159L-166,-23L25,-15Z" fill="#ae252f" stroke="#ae252f" stroke-width="1.51"/><path d="M-166,-23L-53,47L25,-15Z" fill="#b53536" stroke="#b53536" stroke-width="1.51"/><path d="M-67,546L-181,655L30,675Z" fill="#cf8884" stroke="#cf8884" stroke-width="1.51"/><path d="M-209,196L-185,440L-13,229Z" fill="#c36b5f" stroke="#c36b5f" stroke-width="1.51"/><path d="M-166,496L-67,546L11,418Z" fill="#d58983" stroke="#d58983" stroke-width="1.51"/><path d="M-185,440L-166,496L11,418Z" fill="#cd837c" stroke="#cd837c" stroke-width="1.51"/><path d="M-204,994L-139,1098L-6,986Z" fill="#935655" stroke="#935655" stroke-width="1.51"/><path d="M-186,877L-204,994L-6,986Z" fill="#9c5f5f" stroke="#9c5f5f" stroke-width="1.51"/><path d="M-157,121L-209,196L-13,229Z" fill="#bd594d" stroke="#bd594d" stroke-width="1.51"/><path d="M-192,1263L-67,1311L-49,1175Z" fill="#6b3131" stroke="#6b3131" stroke-width="1.51"/><path d="M-190,-195L-166,-23L-32,-159Z" fill="#9c1028" stroke="#9c1028" stroke-width="1.51"/><path d="M-139,1098L-192,1263L-49,1175Z" fill="#743b3c" stroke="#743b3c" stroke-width="1.51"/><path d="M-166,-23L-157,121L-53,47Z" fill="#b03b39" stroke="#b03b39" stroke-width="1.51"/><path d="M-166,496L-181,655L-67,546Z" fill="#c88887" stroke="#c88887" stroke-width="1.51"/><path d="M-204,994L-192,1263L-139,1098Z" fill="#784244" stroke="#784244" stroke-width="1.51"/><path d="M-166,-23L-209,196L-157,121Z" fill="#ac443e" stroke="#ac443e" stroke-width="1.51"/><path d="M-185,440L-181,655L-166,496Z" fill="#c48686" stroke="#c48686" stroke-width="1.51"/><path d="M-190,-195L-209,196L-166,-23Z" fill="#a02c32" stroke="#a02c32" stroke-width="1.51"/><path d="M-204,994L-186,877L-181,655Z" fill="#a26a6b" stroke="#a26a6b" stroke-width="1.51"/><path d="M-185,440L-209,196L-181,655Z" fill="#be7b77" stroke="#be7b77" stroke-width="1.51"/><path d="M-209,196L-204,994L-181,655Z" fill="#b98081" stroke="#b98081" stroke-width="1.51"/></svg>