<svg xmlns="http://www.w3.org/2000/svg" width="1920" height="1080"><path d="M88,-265L463,-218L882,-228Z" fill="#ffdebc" stroke="#ffdebc" stroke-width="1.51"/><path d="M88,-265L882,-228L1503,-260Z" fill="#ffcba8" stroke="#ffcba8" stroke-width="1.51"/><path d="M1456,1242L1345,1270L1690,1250Z" fill="#bb2415" stroke="#bb2415" stroke-width="1.51"/><path d="M1345,1270L1217,1313L1690,1250Z" fill="#bc2c1a" stroke="#bc2c1a" stroke-width="1.51"/><path d="M1742,1249L1690,1250L1888,1281Z" fill="#ab0905" stroke="#ab0905" stroke-width="1.51"/><path d="M1690,1250L1217,1313L1888,1281Z" fill="#b3190e" stroke="#b3190e" stroke-width="1.51"/><path d="M1503,-260L1741,-183L1989,-234Z" fill="#ec9073" stroke="#ec9073" stroke-width="1.51"/><path d="M1944,90L2093,238L2094,56Z" fill="#cd764c" stroke="#cd764c" stroke-width="1.51"/><path d="M1980,433L2059,571L2119,363Z" fill="#c85b34" stroke="#c85b34" stroke-width="1.51"/><path d="M1982,742L2063,870L2126,711Z" fill="#be3722" stroke="#be3722" stroke-width="1.51"/><path d="M2059,571L1982,742L2126,711Z" fill="#c24227" stroke="#c24227" stroke-width="1.51"/><path d="M2119,363L2059,571L2126,711Z" fill="#c24e2c" stroke="#c24e2c" stroke-width="1.51"/><path d="M2126,711L2063,870L2128,1119Z" fill="#b22415" stroke="#b22415" stroke-width="1.51"/><path d="M2063,870L2045,999L2128,1119Z" fill="#ad170d" stroke="#ad170d" stroke-width="1.51"/><path d="M1990,-24L2094,56L2131,-9Z" fill="#cc7b57" stroke="#cc7b57" stroke-width="1.51"/><path d="M2049,-227L1990,-24L2131,-9Z" fill="#d08060" stroke="#d08060" stroke-width="1.51"/><path d="M2093,238L2119,363L2131,-9Z" fill="#c67048" stroke="#c67048" stroke-width="1.51"/><path d="M2094,56L2093,238L2131,-9Z" fill="#c7764f" stroke="#c7764f" stroke-width="1.51"/><path d="M2119,363L2126,711L2131,-9Z" fill="#c3653d" stroke="#c3653d" stroke-width="1.51"/><path d="M2045,999L1911,1178L2128,1119Z" fill="#a90a05" stroke="#a90a05" stroke-width="1.51"/><path d="M1911,1178L2032,1245L2128,1119Z" fill="#a10001" stroke="#a10001" stroke-width="1.51"/><path d="M2093,238L1980,433L2119,363Z" fill="#c9683f" stroke="#c9683f" stroke-width="1.51"/><path d="M1989,-234L1990,-24L2049,-227Z" fill="#d68466" stroke="#d68466" stroke-width="1.51"/><path d="M1913,217L1980,433L2093,238Z" fill="#d06e43" stroke="#d06e43" stroke-width="1.51"/><path d="M1944,90L1913,217L2093,238Z" fill="#d27549" stroke="#d27549" stroke-width="1.51"/><path d="M1990,-24L1944,90L2094,56Z" fill="#d27b55" stroke="#d27b55" stroke-width="1.51"/><path d="M1883,1030L1911,1178L2045,999Z" fill="#b30f07" stroke="#b30f07" stroke-width="1.51"/><path d="M1898,538L1982,742L2059,571Z" fill="#cb4b2a" stroke="#cb4b2a" stroke-width="1.51"/><path d="M1980,433L1898,538L2059,571Z" fill="#ce562f" stroke="#ce562f" stroke-width="1.51"/><path d="M1880,852L2045,999L2063,870Z" fill="#bc2415" stroke="#bc2415" stroke-width="1.51"/><path d="M1982,742L1880,852L2063,870Z" fill="#c3321e" stroke="#c3321e" stroke-width="1.51"/><path d="M1880,852L1883,1030L2045,999Z" fill="#be1c10" stroke="#be1c10" stroke-width="1.51"/><path d="M1880,852L1835,952L1883,1030Z" fill="#c51f11" stroke="#c51f11" stroke-width="1.51"/><path d="M1898,538L1811,639L1982,742Z" fill="#d24a29" stroke="#d24a29" stroke-width="1.51"/><path d="M1989,-234L1791,-75L1990,-24Z" fill="#dd8563" stroke="#dd8563" stroke-width="1.51"/><path d="M1911,1178L1888,1281L2032,1245Z" fill="#a10001" stroke="#a10001" stroke-width="1.51"/><path d="M1913,217L1802,399L1980,433Z" fill="#d86c3f" stroke="#d86c3f" stroke-width="1.51"/><path d="M1741,-183L1791,-75L1989,-234Z" fill="#e58969" stroke="#e58969" stroke-width="1.51"/><path d="M1791,-75L1944,90L1990,-24Z" fill="#dc815a" stroke="#dc815a" stroke-width="1.51"/><path d="M1811,639L1880,852L1982,742Z" fill="#ce3e25" stroke="#ce3e25" stroke-width="1.51"/><path d="M1802,399L1898,538L1980,433Z" fill="#d75f35" stroke="#d75f35" stroke-width="1.51"/><path d="M1811,639L1757,801L1880,852Z" fill="#d33e25" stroke="#d33e25" stroke-width="1.51"/><path d="M1883,1030L1818,1091L1911,1178Z" fill="#b70a04" stroke="#b70a04" stroke-width="1.51"/><path d="M1786,242L1802,399L1913,217Z" fill="#de7345" stroke="#de7345" stroke-width="1.51"/><path d="M1781,129L1913,217L1944,90Z" fill="#dd7a4c" stroke="#dd7a4c" stroke-width="1.51"/><path d="M1791,-75L1781,129L1944,90Z" fill="#e28156" stroke="#e28156" stroke-width="1.51"/><path d="M882,-228L1340,-199L1503,-260Z" fill="#ffaf93" stroke="#ffaf93" stroke-width="1.51"/><path d="M1742,1249L1888,1281L1911,1178Z" fill="#aa0101" stroke="#aa0101" stroke-width="1.51"/><path d="M1781,129L1786,242L1913,217Z" fill="#e0794b" stroke="#e0794b" stroke-width="1.51"/><path d="M1802,399L1733,514L1898,538Z" fill="#dd5f35" stroke="#dd5f35" stroke-width="1.51"/><path d="M1818,1091L1742,1249L1911,1178Z" fill="#b30402" stroke="#b30402" stroke-width="1.51"/><path d="M273,1331L114,1337L408,1338Z" fill="#c77751" stroke="#c77751" stroke-width="1.51"/><path d="M1733,514L1811,639L1898,538Z" fill="#db552e" stroke="#db552e" stroke-width="1.51"/><path d="M1757,801L1835,952L1880,852Z" fill="#cc2f1b" stroke="#cc2f1b" stroke-width="1.51"/><path d="M1835,952L1818,1091L1883,1030Z" fill="#bf160b" stroke="#bf160b" stroke-width="1.51"/><path d="M1503,-260L1636,-168L1741,-183Z" fill="#f29577" stroke="#f29577" stroke-width="1.51"/><path d="M1679,-10L1781,129L1791,-75Z" fill="#e7865d" stroke="#e7865d" stroke-width="1.51"/><path d="M1786,242L1668,368L1802,399Z" fill="#e27346" stroke="#e27346" stroke-width="1.51"/><path d="M1582,965L1818,1091L1835,952Z" fill="#c72012" stroke="#c72012" stroke-width="1.51"/><path d="M1757,801L1582,965L1835,952Z" fill="#d02e1b" stroke="#d02e1b" stroke-width="1.51"/><path d="M1654,280L1668,368L1786,242Z" fill="#e6784b" stroke="#e6784b" stroke-width="1.51"/><path d="M1605,731L1757,801L1811,639Z" fill="#da482d" stroke="#da482d" stroke-width="1.51"/><path d="M1690,1250L1742,1249L1818,1091Z" fill="#b40d06" stroke="#b40d06" stroke-width="1.51"/><path d="M1580,1144L1690,1250L1818,1091Z" fill="#bc1208" stroke="#bc1208" stroke-width="1.51"/><path d="M1582,965L1580,1144L1818,1091Z" fill="#c72012" stroke="#c72012" stroke-width="1.51"/><path d="M1588,839L1582,965L1757,801Z" fill="#d73824" stroke="#d73824" stroke-width="1.51"/><path d="M1733,514L1605,731L1811,639Z" fill="#de5231" stroke="#de5231" stroke-width="1.51"/><path d="M1781,129L1634,138L1786,242Z" fill="#e57f51" stroke="#e57f51" stroke-width="1.51"/><path d="M1668,368L1733,514L1802,399Z" fill="#e26a3e" stroke="#e26a3e" stroke-width="1.51"/><path d="M1636,-168L1679,-10L1741,-183Z" fill="#ed8f6d" stroke="#ed8f6d" stroke-width="1.51"/><path d="M1679,-10L1634,138L1781,129Z" fill="#e88559" stroke="#e88559" stroke-width="1.51"/><path d="M1634,138L1654,280L1786,242Z" fill="#e77e50" stroke="#e77e50" stroke-width="1.51"/><path d="M1741,-183L1679,-10L1791,-75Z" fill="#ea8c68" stroke="#ea8c68" stroke-width="1.51"/><path d="M1617,496L1605,731L1733,514Z" fill="#e45a36" stroke="#e45a36" stroke-width="1.51"/><path d="M882,-228L1046,-176L1340,-199Z" fill="#ffb796" stroke="#ffb796" stroke-width="1.51"/><path d="M1668,368L1617,496L1733,514Z" fill="#e5683e" stroke="#e5683e" stroke-width="1.51"/><path d="M1605,731L1588,839L1757,801Z" fill="#db432b" stroke="#db432b" stroke-width="1.51"/><path d="M1521,1019L1580,1144L1582,965Z" fill="#cf2819" stroke="#cf2819" stroke-width="1.51"/><path d="M1636,-168L1461,-116L1679,-10Z" fill="#f29270" stroke="#f29270" stroke-width="1.51"/><path d="M1580,1144L1456,1242L1690,1250Z" fill="#bd1b10" stroke="#bd1b10" stroke-width="1.51"/><path d="M1533,745L1605,731L1617,496Z" fill="#e55636" stroke="#e55636" stroke-width="1.51"/><path d="M1431,128L1634,138L1679,-10Z" fill="#ef8b5f" stroke="#ef8b5f" stroke-width="1.51"/><path d="M1461,-116L1431,128L1679,-10Z" fill="#f3926b" stroke="#f3926b" stroke-width="1.51"/><path d="M1478,490L1533,745L1617,496Z" fill="#ea613b" stroke="#ea613b" stroke-width="1.51"/><path d="M1634,138L1435,239L1654,280Z" fill="#ee8356" stroke="#ee8356" stroke-width="1.51"/><path d="M1654,280L1448,369L1668,368Z" fill="#ec7a4e" stroke="#ec7a4e" stroke-width="1.51"/><path d="M1448,369L1617,496L1668,368Z" fill="#eb7247" stroke="#eb7247" stroke-width="1.51"/><path d="M1448,369L1478,490L1617,496Z" fill="#ee7247" stroke="#ee7247" stroke-width="1.51"/><path d="M1435,239L1448,369L1654,280Z" fill="#f08256" stroke="#f08256" stroke-width="1.51"/><path d="M1431,128L1435,239L1634,138Z" fill="#f18b5e" stroke="#f18b5e" stroke-width="1.51"/><path d="M1503,-260L1461,-116L1636,-168Z" fill="#f6997b" stroke="#f6997b" stroke-width="1.51"/><path d="M1533,745L1588,839L1605,731Z" fill="#e14931" stroke="#e14931" stroke-width="1.51"/><path d="M1461,839L1582,965L1588,839Z" fill="#dc3d27" stroke="#dc3d27" stroke-width="1.51"/><path d="M1046,-176L1212,-163L1340,-199Z" fill="#ffb090" stroke="#ffb090" stroke-width="1.51"/><path d="M1478,490L1343,569L1533,745Z" fill="#ec6541" stroke="#ec6541" stroke-width="1.51"/><path d="M1521,1019L1448,1157L1580,1144Z" fill="#cb2817" stroke="#cb2817" stroke-width="1.51"/><path d="M1448,1157L1456,1242L1580,1144Z" fill="#c42515" stroke="#c42515" stroke-width="1.51"/><path d="M1461,839L1521,1019L1582,965Z" fill="#d93623" stroke="#d93623" stroke-width="1.51"/><path d="M1533,745L1461,839L1588,839Z" fill="#e14830" stroke="#e14830" stroke-width="1.51"/><path d="M1461,839L1282,958L1521,1019Z" fill="#de402a" stroke="#de402a" stroke-width="1.51"/><path d="M1289,746L1461,839L1533,745Z" fill="#e75439" stroke="#e75439" stroke-width="1.51"/><path d="M1343,569L1289,746L1533,745Z" fill="#ec6141" stroke="#ec6141" stroke-width="1.51"/><path d="M463,-218L617,-198L882,-228Z" fill="#ffd7b2" stroke="#ffd7b2" stroke-width="1.51"/><path d="M1289,746L1335,825L1461,839Z" fill="#e8573b" stroke="#e8573b" stroke-width="1.51"/><path d="M1279,-75L1431,128L1461,-116Z" fill="#f89c77" stroke="#f89c77" stroke-width="1.51"/><path d="M1340,-199L1461,-116L1503,-260Z" fill="#f9a082" stroke="#f9a082" stroke-width="1.51"/><path d="M1319,1118L1448,1157L1521,1019Z" fill="#d0321e" stroke="#d0321e" stroke-width="1.51"/><path d="M1282,958L1319,1118L1521,1019Z" fill="#d83d26" stroke="#d83d26" stroke-width="1.51"/><path d="M1279,-75L1288,95L1431,128Z" fill="#f89e74" stroke="#f89e74" stroke-width="1.51"/><path d="M1335,825L1282,958L1461,839Z" fill="#e44e34" stroke="#e44e34" stroke-width="1.51"/><path d="M1448,369L1337,438L1478,490Z" fill="#f17b50" stroke="#f17b50" stroke-width="1.51"/><path d="M1337,438L1343,569L1478,490Z" fill="#f2754c" stroke="#f2754c" stroke-width="1.51"/><path d="M1035,1296L934,1327L1217,1313Z" fill="#c24929" stroke="#c24929" stroke-width="1.51"/><path d="M1431,128L1341,222L1435,239Z" fill="#f49163" stroke="#f49163" stroke-width="1.51"/><path d="M1435,239L1341,222L1448,369Z" fill="#f38b5e" stroke="#f38b5e" stroke-width="1.51"/><path d="M1448,1157L1345,1270L1456,1242Z" fill="#c22e1b" stroke="#c22e1b" stroke-width="1.51"/><path d="M1340,-199L1279,-75L1461,-116Z" fill="#faa383" stroke="#faa383" stroke-width="1.51"/><path d="M1239,349L1337,438L1341,222Z" fill="#f68e62" stroke="#f68e62" stroke-width="1.51"/><path d="M1319,1118L1345,1270L1448,1157Z" fill="#ca331e" stroke="#ca331e" stroke-width="1.51"/><path d="M1341,222L1337,438L1448,369Z" fill="#f4895c" stroke="#f4895c" stroke-width="1.51"/><path d="M1288,95L1341,222L1431,128Z" fill="#f69769" stroke="#f69769" stroke-width="1.51"/><path d="M1279,-75L1188,-9L1288,95Z" fill="#fba57e" stroke="#fba57e" stroke-width="1.51"/><path d="M1167,1101L1217,1313L1319,1118Z" fill="#cf4025" stroke="#cf4025" stroke-width="1.51"/><path d="M1282,958L1214,1045L1319,1118Z" fill="#db452c" stroke="#db452c" stroke-width="1.51"/><path d="M1212,-163L1279,-75L1340,-199Z" fill="#fdaa8b" stroke="#fdaa8b" stroke-width="1.51"/><path d="M1154,236L1239,349L1341,222Z" fill="#f9976a" stroke="#f9976a" stroke-width="1.51"/><path d="M1288,95L1177,116L1341,222Z" fill="#f99d70" stroke="#f99d70" stroke-width="1.51"/><path d="M1177,116L1154,236L1341,222Z" fill="#fa9d6f" stroke="#fa9d6f" stroke-width="1.51"/><path d="M1181,684L1289,746L1343,569Z" fill="#f16c4a" stroke="#f16c4a" stroke-width="1.51"/><path d="M1203,540L1181,684L1343,569Z" fill="#f5754e" stroke="#f5754e" stroke-width="1.51"/><path d="M1337,438L1203,540L1343,569Z" fill="#f47a50" stroke="#f47a50" stroke-width="1.51"/><path d="M1319,1118L1217,1313L1345,1270Z" fill="#c63923" stroke="#c63923" stroke-width="1.51"/><path d="M1131,893L1282,958L1335,825Z" fill="#e7553a" stroke="#e7553a" stroke-width="1.51"/><path d="M1239,349L1203,540L1337,438Z" fill="#f7855a" stroke="#f7855a" stroke-width="1.51"/><path d="M1289,746L1131,893L1335,825Z" fill="#eb5d40" stroke="#eb5d40" stroke-width="1.51"/><path d="M1214,1045L1167,1101L1319,1118Z" fill="#d8452a" stroke="#d8452a" stroke-width="1.51"/><path d="M1188,-9L1177,116L1288,95Z" fill="#fba479" stroke="#fba479" stroke-width="1.51"/><path d="M1181,684L1131,893L1289,746Z" fill="#ef6646" stroke="#ef6646" stroke-width="1.51"/><path d="M1131,893L1214,1045L1282,958Z" fill="#e35034" stroke="#e35034" stroke-width="1.51"/><path d="M617,-198L730,-196L882,-228Z" fill="#ffd0aa" stroke="#ffd0aa" stroke-width="1.51"/><path d="M1212,-163L1188,-9L1279,-75Z" fill="#fdab88" stroke="#fdab88" stroke-width="1.51"/><path d="M1059,803L1131,893L1181,684Z" fill="#f06947" stroke="#f06947" stroke-width="1.51"/><path d="M1167,1101L1035,1296L1217,1313Z" fill="#ca4628" stroke="#ca4628" stroke-width="1.51"/><path d="M1154,236L1057,252L1239,349Z" fill="#fa9c6c" stroke="#fa9c6c" stroke-width="1.51"/><path d="M1057,252L1062,492L1239,349Z" fill="#fa9767" stroke="#fa9767" stroke-width="1.51"/><path d="M1062,492L1203,540L1239,349Z" fill="#f8895b" stroke="#f8895b" stroke-width="1.51"/><path d="M1057,252L986,420L1062,492Z" fill="#fc9967" stroke="#fc9967" stroke-width="1.51"/><path d="M1046,-176L1044,-12L1188,-9Z" fill="#ffb28a" stroke="#ffb28a" stroke-width="1.51"/><path d="M1028,637L1181,684L1203,540Z" fill="#f67a50" stroke="#f67a50" stroke-width="1.51"/><path d="M1046,-176L1188,-9L1212,-163Z" fill="#ffb18c" stroke="#ffb18c" stroke-width="1.51"/><path d="M1131,893L1053,1003L1214,1045Z" fill="#e45435" stroke="#e45435" stroke-width="1.51"/><path d="M1053,1003L1167,1101L1214,1045Z" fill="#de4f30" stroke="#de4f30" stroke-width="1.51"/><path d="M1037,69L1177,116L1188,-9Z" fill="#fdaa7c" stroke="#fdaa7c" stroke-width="1.51"/><path d="M1062,492L1028,637L1203,540Z" fill="#f98354" stroke="#f98354" stroke-width="1.51"/><path d="M987,1101L1035,1296L1167,1101Z" fill="#d54e2a" stroke="#d54e2a" stroke-width="1.51"/><path d="M1057,252L1154,236L1177,116Z" fill="#fba271" stroke="#fba271" stroke-width="1.51"/><path d="M1044,-12L1037,69L1188,-9Z" fill="#feaf82" stroke="#feaf82" stroke-width="1.51"/><path d="M1037,69L1057,252L1177,116Z" fill="#fca876" stroke="#fca876" stroke-width="1.51"/><path d="M1028,637L1059,803L1181,684Z" fill="#f5754e" stroke="#f5754e" stroke-width="1.51"/><path d="M1053,1003L987,1101L1167,1101Z" fill="#de5431" stroke="#de5431" stroke-width="1.51"/><path d="M1059,803L1053,1003L1131,893Z" fill="#ea603e" stroke="#ea603e" stroke-width="1.51"/><path d="M876,209L831,338L986,420Z" fill="#feaa73" stroke="#feaa73" stroke-width="1.51"/><path d="M987,1101L860,1150L1035,1296Z" fill="#d6552d" stroke="#d6552d" stroke-width="1.51"/><path d="M860,1150L934,1327L1035,1296Z" fill="#cc542d" stroke="#cc542d" stroke-width="1.51"/><path d="M850,136L876,209L1037,69Z" fill="#feb37d" stroke="#feb37d" stroke-width="1.51"/><path d="M881,-89L1044,-12L1046,-176Z" fill="#ffba8f" stroke="#ffba8f" stroke-width="1.51"/><path d="M928,819L831,975L1053,1003Z" fill="#ec673f" stroke="#ec673f" stroke-width="1.51"/><path d="M1037,69L876,209L1057,252Z" fill="#feac77" stroke="#feac77" stroke-width="1.51"/><path d="M876,209L986,420L1057,252Z" fill="#fda670" stroke="#fda670" stroke-width="1.51"/><path d="M928,819L1053,1003L1059,803Z" fill="#ee6842" stroke="#ee6842" stroke-width="1.51"/><path d="M1028,637L928,819L1059,803Z" fill="#f4754e" stroke="#f4754e" stroke-width="1.51"/><path d="M907,594L1028,637L1062,492Z" fill="#fa8856" stroke="#fa8856" stroke-width="1.51"/><path d="M986,420L907,594L1062,492Z" fill="#fc905c" stroke="#fc905c" stroke-width="1.51"/><path d="M858,669L928,819L1028,637Z" fill="#f77f53" stroke="#f77f53" stroke-width="1.51"/><path d="M831,975L987,1101L1053,1003Z" fill="#e45e36" stroke="#e45e36" stroke-width="1.51"/><path d="M881,-89L1037,69L1044,-12Z" fill="#ffb688" stroke="#ffb688" stroke-width="1.51"/><path d="M882,-228L881,-89L1046,-176Z" fill="#ffc098" stroke="#ffc098" stroke-width="1.51"/><path d="M881,-89L850,136L1037,69Z" fill="#ffb886" stroke="#ffb886" stroke-width="1.51"/><path d="M907,594L858,669L1028,637Z" fill="#f98757" stroke="#f98757" stroke-width="1.51"/><path d="M786,1273L608,1335L934,1327Z" fill="#c65f38" stroke="#c65f38" stroke-width="1.51"/><path d="M831,338L907,594L986,420Z" fill="#fd9b65" stroke="#fd9b65" stroke-width="1.51"/><path d="M831,975L860,1150L987,1101Z" fill="#e16138" stroke="#e16138" stroke-width="1.51"/><path d="M711,421L737,554L831,338Z" fill="#fda872" stroke="#fda872" stroke-width="1.51"/><path d="M735,-52L850,136L881,-89Z" fill="#ffc292" stroke="#ffc292" stroke-width="1.51"/><path d="M831,338L737,554L907,594Z" fill="#fd9d67" stroke="#fd9d67" stroke-width="1.51"/><path d="M769,943L831,975L928,819Z" fill="#ee7148" stroke="#ee7148" stroke-width="1.51"/><path d="M752,820L769,943L928,819Z" fill="#f1794e" stroke="#f1794e" stroke-width="1.51"/><path d="M858,669L752,820L928,819Z" fill="#f58156" stroke="#f58156" stroke-width="1.51"/><path d="M860,1150L786,1273L934,1327Z" fill="#ce5b33" stroke="#ce5b33" stroke-width="1.51"/><path d="M778,272L831,338L876,209Z" fill="#fdb27c" stroke="#fdb27c" stroke-width="1.51"/><path d="M730,-196L881,-89L882,-228Z" fill="#ffc8a1" stroke="#ffc8a1" stroke-width="1.51"/><path d="M737,554L858,669L907,594Z" fill="#fb915f" stroke="#fb915f" stroke-width="1.51"/><path d="M735,-52L707,140L850,136Z" fill="#fec28f" stroke="#fec28f" stroke-width="1.51"/><path d="M831,975L706,1097L860,1150Z" fill="#e2693e" stroke="#e2693e" stroke-width="1.51"/><path d="M730,-196L735,-52L881,-89Z" fill="#ffca9f" stroke="#ffca9f" stroke-width="1.51"/><path d="M850,136L778,272L876,209Z" fill="#feb67f" stroke="#feb67f" stroke-width="1.51"/><path d="M707,140L778,272L850,136Z" fill="#febb85" stroke="#febb85" stroke-width="1.51"/><path d="M703,639L752,820L858,669Z" fill="#f88c5f" stroke="#f88c5f" stroke-width="1.51"/><path d="M737,554L703,639L858,669Z" fill="#fb9563" stroke="#fb9563" stroke-width="1.51"/><path d="M706,1097L786,1273L860,1150Z" fill="#d96439" stroke="#d96439" stroke-width="1.51"/><path d="M769,943L706,1097L831,975Z" fill="#e87044" stroke="#e87044" stroke-width="1.51"/><path d="M778,272L711,421L831,338Z" fill="#fdb27b" stroke="#fdb27b" stroke-width="1.51"/><path d="M625,274L630,394L711,421Z" fill="#fdb881" stroke="#fdb881" stroke-width="1.51"/><path d="M625,274L711,421L778,272Z" fill="#fdb881" stroke="#fdb881" stroke-width="1.51"/><path d="M707,140L625,274L778,272Z" fill="#fdbf87" stroke="#fdbf87" stroke-width="1.51"/><path d="M706,1097L604,1180L786,1273Z" fill="#d96b3e" stroke="#d96b3e" stroke-width="1.51"/><path d="M604,1180L608,1335L786,1273Z" fill="#ce6a40" stroke="#ce6a40" stroke-width="1.51"/><path d="M584,1008L706,1097L769,943Z" fill="#e8764a" stroke="#e8764a" stroke-width="1.51"/><path d="M752,820L566,857L769,943Z" fill="#f18256" stroke="#f18256" stroke-width="1.51"/><path d="M703,639L566,857L752,820Z" fill="#f68e62" stroke="#f68e62" stroke-width="1.51"/><path d="M566,857L584,1008L769,943Z" fill="#ef7f52" stroke="#ef7f52" stroke-width="1.51"/><path d="M540,642L566,857L703,639Z" fill="#f99769" stroke="#f99769" stroke-width="1.51"/><path d="M539,119L707,140L735,-52Z" fill="#fecb97" stroke="#fecb97" stroke-width="1.51"/><path d="M538,-70L539,119L735,-52Z" fill="#fed0a0" stroke="#fed0a0" stroke-width="1.51"/><path d="M730,-196L617,-198L735,-52Z" fill="#ffd1a9" stroke="#ffd1a9" stroke-width="1.51"/><path d="M617,-198L538,-70L735,-52Z" fill="#ffd4aa" stroke="#ffd4aa" stroke-width="1.51"/><path d="M531,556L703,639L737,554Z" fill="#fca06c" stroke="#fca06c" stroke-width="1.51"/><path d="M711,421L630,394L737,554Z" fill="#fdab74" stroke="#fdab74" stroke-width="1.51"/><path d="M630,394L531,556L737,554Z" fill="#feaa73" stroke="#feaa73" stroke-width="1.51"/><path d="M531,556L540,642L703,639Z" fill="#fca16e" stroke="#fca16e" stroke-width="1.51"/><path d="M539,119L625,274L707,140Z" fill="#fdc68f" stroke="#fdc68f" stroke-width="1.51"/><path d="M584,1008L604,1180L706,1097Z" fill="#e27447" stroke="#e27447" stroke-width="1.51"/><path d="M584,1008L388,1130L604,1180Z" fill="#e2784a" stroke="#e2784a" stroke-width="1.51"/><path d="M604,1180L408,1338L608,1335Z" fill="#cc6f45" stroke="#cc6f45" stroke-width="1.51"/><path d="M539,119L436,237L625,274Z" fill="#fdc891" stroke="#fdc891" stroke-width="1.51"/><path d="M386,376L531,556L630,394Z" fill="#feb57e" stroke="#feb57e" stroke-width="1.51"/><path d="M625,274L436,237L630,394Z" fill="#fdc18a" stroke="#fdc18a" stroke-width="1.51"/><path d="M436,237L386,376L630,394Z" fill="#fdc38b" stroke="#fdc38b" stroke-width="1.51"/><path d="M386,376L393,502L531,556Z" fill="#feb57e" stroke="#feb57e" stroke-width="1.51"/><path d="M540,642L398,694L566,857Z" fill="#f99a6d" stroke="#f99a6d" stroke-width="1.51"/><path d="M463,-218L538,-70L617,-198Z" fill="#ffd9b2" stroke="#ffd9b2" stroke-width="1.51"/><path d="M398,694L402,835L566,857Z" fill="#f79669" stroke="#f79669" stroke-width="1.51"/><path d="M388,1130L408,1338L604,1180Z" fill="#d67549" stroke="#d67549" stroke-width="1.51"/><path d="M566,857L395,967L584,1008Z" fill="#ef8457" stroke="#ef8457" stroke-width="1.51"/><path d="M538,-70L429,140L539,119Z" fill="#fed19e" stroke="#fed19e" stroke-width="1.51"/><path d="M395,967L388,1130L584,1008Z" fill="#e88052" stroke="#e88052" stroke-width="1.51"/><path d="M88,-265L308,-167L463,-218Z" fill="#ffe5c4" stroke="#ffe5c4" stroke-width="1.51"/><path d="M399,-80L429,140L538,-70Z" fill="#fed6a7" stroke="#fed6a7" stroke-width="1.51"/><path d="M429,140L436,237L539,119Z" fill="#fdcd97" stroke="#fdcd97" stroke-width="1.51"/><path d="M402,835L395,967L566,857Z" fill="#f28c5f" stroke="#f28c5f" stroke-width="1.51"/><path d="M463,-218L399,-80L538,-70Z" fill="#fedbb2" stroke="#fedbb2" stroke-width="1.51"/><path d="M531,556L398,694L540,642Z" fill="#fba371" stroke="#fba371" stroke-width="1.51"/><path d="M393,502L398,694L531,556Z" fill="#fdaa75" stroke="#fdaa75" stroke-width="1.51"/><path d="M399,-80L336,93L429,140Z" fill="#fed6a5" stroke="#fed6a5" stroke-width="1.51"/><path d="M388,1130L264,1166L408,1338Z" fill="#d77a4d" stroke="#d77a4d" stroke-width="1.51"/><path d="M308,-167L399,-80L463,-218Z" fill="#ffe0b8" stroke="#ffe0b8" stroke-width="1.51"/><path d="M301,977L388,1130L395,967Z" fill="#ea8557" stroke="#ea8557" stroke-width="1.51"/><path d="M393,502L254,579L398,694Z" fill="#fdad7a" stroke="#fdad7a" stroke-width="1.51"/><path d="M304,856L395,967L402,835Z" fill="#f39062" stroke="#f39062" stroke-width="1.51"/><path d="M398,694L290,743L402,835Z" fill="#f99d71" stroke="#f99d71" stroke-width="1.51"/><path d="M264,1166L273,1331L408,1338Z" fill="#ce784f" stroke="#ce784f" stroke-width="1.51"/><path d="M257,277L386,376L436,237Z" fill="#fdca93" stroke="#fdca93" stroke-width="1.51"/><path d="M429,140L336,93L436,237Z" fill="#fdd19a" stroke="#fdd19a" stroke-width="1.51"/><path d="M336,93L257,277L436,237Z" fill="#fdd09a" stroke="#fdd09a" stroke-width="1.51"/><path d="M245,-60L336,93L399,-80Z" fill="#fedcaf" stroke="#fedcaf" stroke-width="1.51"/><path d="M386,376L235,369L393,502Z" fill="#febf8a" stroke="#febf8a" stroke-width="1.51"/><path d="M304,856L301,977L395,967Z" fill="#f18d60" stroke="#f18d60" stroke-width="1.51"/><path d="M290,743L304,856L402,835Z" fill="#f7996d" stroke="#f7996d" stroke-width="1.51"/><path d="M301,977L264,1166L388,1130Z" fill="#e58255" stroke="#e58255" stroke-width="1.51"/><path d="M254,579L290,743L398,694Z" fill="#fca778" stroke="#fca778" stroke-width="1.51"/><path d="M308,-167L245,-60L399,-80Z" fill="#fee0b8" stroke="#fee0b8" stroke-width="1.51"/><path d="M235,369L254,579L393,502Z" fill="#ffb986" stroke="#ffb986" stroke-width="1.51"/><path d="M257,277L235,369L386,376Z" fill="#fec995" stroke="#fec995" stroke-width="1.51"/><path d="M254,579L183,669L290,743Z" fill="#fcaa7d" stroke="#fcaa7d" stroke-width="1.51"/><path d="M161,985L264,1166L301,977Z" fill="#ea885d" stroke="#ea885d" stroke-width="1.51"/><path d="M163,126L257,277L336,93Z" fill="#fed5a3" stroke="#fed5a3" stroke-width="1.51"/><path d="M245,-60L163,126L336,93Z" fill="#fedbae" stroke="#fedbae" stroke-width="1.51"/><path d="M235,369L91,441L254,579Z" fill="#ffbf8f" stroke="#ffbf8f" stroke-width="1.51"/><path d="M163,126L161,260L257,277Z" fill="#fed4a3" stroke="#fed4a3" stroke-width="1.51"/><path d="M290,743L144,791L304,856Z" fill="#f89d74" stroke="#f89d74" stroke-width="1.51"/><path d="M161,985L301,977L304,856Z" fill="#f28e65" stroke="#f28e65" stroke-width="1.51"/><path d="M88,-265L245,-60L308,-167Z" fill="#ffe6c4" stroke="#ffe6c4" stroke-width="1.51"/><path d="M264,1166L114,1337L273,1331Z" fill="#d07b56" stroke="#d07b56" stroke-width="1.51"/><path d="M144,791L161,985L304,856Z" fill="#f5966e" stroke="#f5966e" stroke-width="1.51"/><path d="M93,1190L114,1337L264,1166Z" fill="#d77f5a" stroke="#d77f5a" stroke-width="1.51"/><path d="M91,441L112,578L254,579Z" fill="#ffb98a" stroke="#ffb98a" stroke-width="1.51"/><path d="M183,669L144,791L290,743Z" fill="#fba57d" stroke="#fba57d" stroke-width="1.51"/><path d="M81,-43L163,126L245,-60Z" fill="#fee0b8" stroke="#fee0b8" stroke-width="1.51"/><path d="M88,-265L81,-43L245,-60Z" fill="#fee7c6" stroke="#fee7c6" stroke-width="1.51"/><path d="M161,985L93,1190L264,1166Z" fill="#e5855d" stroke="#e5855d" stroke-width="1.51"/><path d="M161,260L235,369L257,277Z" fill="#fece9d" stroke="#fece9d" stroke-width="1.51"/><path d="M112,578L183,669L254,579Z" fill="#ffb184" stroke="#ffb184" stroke-width="1.51"/><path d="M161,260L91,441L235,369Z" fill="#ffcb9c" stroke="#ffcb9c" stroke-width="1.51"/><path d="M-32,-159L81,-43L88,-265Z" fill="#ffebcf" stroke="#ffebcf" stroke-width="1.51"/><path d="M11,418L91,441L161,260Z" fill="#ffcca0" stroke="#ffcca0" stroke-width="1.51"/><path d="M-6,986L93,1190L161,985Z" fill="#eb8c67" stroke="#eb8c67" stroke-width="1.51"/><path d="M144,791L37,800L161,985Z" fill="#f79b76" stroke="#f79b76" stroke-width="1.51"/><path d="M37,800L-6,986L161,985Z" fill="#f59773" stroke="#f59773" stroke-width="1.51"/><path d="M81,-43L25,-15L163,126Z" fill="#fee2bb" stroke="#fee2bb" stroke-width="1.51"/><path d="M-13,229L161,260L163,126Z" fill="#fed8ab" stroke="#fed8ab" stroke-width="1.51"/><path d="M30,675L144,791L183,669Z" fill="#fcaa84" stroke="#fcaa84" stroke-width="1.51"/><path d="M112,578L30,675L183,669Z" fill="#feb188" stroke="#feb188" stroke-width="1.51"/><path d="M30,675L37,800L144,791Z" fill="#fca784" stroke="#fca784" stroke-width="1.51"/><path d="M-13,229L11,418L161,260Z" fill="#ffd3a8" stroke="#ffd3a8" stroke-width="1.51"/><path d="M25,-15L-53,47L163,126Z" fill="#fee2bb" stroke="#fee2bb" stroke-width="1.51"/><path d="M-53,47L-13,229L163,126Z" fill="#fedeb4" stroke="#fedeb4" stroke-width="1.51"/><path d="M-6,986L-49,1175L93,1190Z" fill="#e68967" stroke="#e68967" stroke-width="1.51"/><path d="M11,418L-67,546L91,441Z" fill="#ffc49a" stroke="#ffc49a" stroke-width="1.51"/><path d="M-49,1175L-67,1311L93,1190Z" fill="#da8464" stroke="#da8464" stroke-width="1.51"/><path d="M91,441L-67,546L112,578Z" fill="#ffbd93" stroke="#ffbd93" stroke-width="1.51"/><path d="M93,1190L-67,1311L114,1337Z" fill="#d18160" stroke="#d18160" stroke-width="1.51"/><path d="M-67,546L30,675L112,578Z" fill="#ffb78f" stroke="#ffb78f" stroke-width="1.51"/><path d="M-32,-159L25,-15L81,-43Z" fill="#fee8c9" stroke="#fee8c9" stroke-width="1.51"/><path d="M-190,-195L-32,-159L88,-265Z" fill="#ffefd9" stroke="#ffefd9" stroke-width="1.51"/><path d="M-139,1098L-49,1175L-6,986Z" fill="#ea8e6d" stroke="#ea8e6d" stroke-width="1.51"/><path d="M-13,229L-185,440L11,418Z" fill="#ffd1aa" stroke="#ffd1aa" stroke-width="1.51"/><path d="M-186,877L-6,986L37,800Z" fill="#f89d7d" stroke="#f89d7d" stroke-width="1.51"/><path d="M30,675L-181,655L37,800Z" fill="#feae8d" stroke="#feae8d" stroke-width="1.51"/><path d="M-181,655L-186,877L37,800Z" fill="#fda98c" stroke="#fda98c" stroke-width="1.51"/><path d="M-53,47L-157,121L-13,229Z" fill="#ffe1ba" stroke="#ffe1ba" stroke-width="1.51"/><path d="M-32,-159L-166,-23L25,-15Z" fill="#ffeacd" stroke="#ffeacd" stroke-width="1.51"/><path d="M-166,-23L-53,47L25,-15Z" fill="#ffe7c7" stroke="#ffe7c7" stroke-width="1.51"/><path d="M-67,546L-181,655L30,675Z" fill="#ffb793" stroke="#ffb793" stroke-width="1.51"/><path d="M-209,196L-185,440L-13,229Z" fill="#ffd9b4" stroke="#ffd9b4" stroke-width="1.51"/><path d="M-166,496L-67,546L11,418Z" fill="#ffc49d" stroke="#ffc49d" stroke-width="1.51"/><path d="M-185,440L-166,496L11,418Z" fill="#ffc9a3" stroke="#ffc9a3" stroke-width="1.51"/><path d="M-204,994L-139,1098L-6,986Z" fill="#f09374" stroke="#f09374" stroke-width="1.51"/><path d="M-186,877L-204,994L-6,986Z" fill="#f6987b" stroke="#f6987b" stroke-width="1.51"/><path d="M-157,121L-209,196L-13,229Z" fill="#ffdfba" stroke="#ffdfba" stroke-width="1.51"/><path d="M-192,1263L-67,1311L-49,1175Z" fill="#d88569" stroke="#d88569" stroke-width="1.51"/><path d="M-190,-195L-166,-23L-32,-159Z" fill="#ffeed7" stroke="#ffeed7" stroke-width="1.51"/><path d="M-139,1098L-192,1263L-49,1175Z" fill="#e2896b" stroke="#e2896b" stroke-width="1.51"/><path d="M-166,-23L-157,121L-53,47Z" fill="#ffe6c6" stroke="#ffe6c6" stroke-width="1.51"/><path d="M-166,496L-181,655L-67,546Z" fill="#ffbd9a" stroke="#ffbd9a" stroke-width="1.51"/><path d="M-204,994L-192,1263L-139,1098Z" fill="#e98e71" stroke="#e98e71" stroke-width="1.51"/><path d="M-166,-23L-209,196L-157,121Z" fill="#ffe5c4" stroke="#ffe5c4" stroke-width="1.51"/><path d="M-185,440L-181,655L-166,496Z" fill="#ffc29e" stroke="#ffc29e" stroke-width="1.51"/><path d="M-190,-195L-209,196L-166,-23Z" fill="#ffeacf" stroke="#ffeacf" stroke-width="1.51"/><path d="M-204,994L-186,877L-181,655Z" fill="#fba58a" stroke="#fba58a" stroke-width="1.51"/><path d="M-185,440L-209,196L-181,655Z" fill="#ffcdaa" stroke="#ffcdaa" stroke-width="1.51"/><path d="M-209,196L-204,994L-181,655Z" fill="#ffbb9b" stroke="#ffbb9b" stroke-width="1.51"/></svg>