<svg xmlns="http://www.w3.org/2000/svg" viewBox="0 0 400 140"><defs><style>.cls-1{fill:none;}.cls-2{fill:#aab5c5;}.cls-3{fill:#633ba3;}.cls-4{fill:#5c2d91;}.cls-5{fill:#fff;}.cls-6{fill:#222;}</style></defs><title>asp-core-overview-2</title><g id="titles"><path class="cls-1" d="M95.53,101.17c-.37,2.38-2.62,21.51-4.18,34.83h13.48c-1.56-13.32-3.82-32.46-4.18-34.83C100.23,98.41,96,98.41,95.53,101.17Z"/><ellipse class="cls-2" cx="205.74" cy="114.91" rx="10.72" ry="11.65"/><path class="cls-2" d="M216.77,124.9a13.63,13.63,0,0,1-22,.11c-7.58,1.89-8.77,8.37-8.72,15H226C226,133.25,224.79,126.63,216.77,124.9Z"/><ellipse class="cls-2" cx="253.25" cy="114.91" rx="10.72" ry="11.65"/><path class="cls-2" d="M264.28,124.9a13.63,13.63,0,0,1-22,.11c-7.58,1.89-8.77,8.37-8.72,15h39.89C273.54,133.25,272.3,126.63,264.28,124.9Z"/><ellipse class="cls-2" cx="157.65" cy="114.91" rx="10.72" ry="11.65"/><path class="cls-2" d="M168.68,124.9a13.63,13.63,0,0,1-22,.11c-7.58,1.89-8.77,8.37-8.72,15h39.89C177.94,133.25,176.7,126.63,168.68,124.9Z"/><ellipse class="cls-2" cx="97.53" cy="26.06" rx="10.25" ry="12.46"/><path class="cls-2" d="M95.19,105.11c.43-2.76,4.73-2.76,5.16,0,.37,2.38,2.65,21.58,4.22,34.93H116.5l-.09-43h4.09V59.27l8.36,2.2a4.6,4.6,0,0,0,1.95.25,4.65,4.65,0,0,0,1.5-.39l19.19-9.47a4.53,4.53,0,0,0,2.29-6,4.61,4.61,0,0,0-6.08-2.27l-16.77,6.85-16-4.69-3-.87h-.05c-4.15-1.18-8.56-2.32-8.56-2.32L97.3,55h-.1l-6-12.52s-7.6,1.71-11.62,2.84-6.45,4.28-6.89,8.82c-.62,6.38-.6,20.65-1.13,26.4-.18,2-.2,8.58,2.09,11.51,2.85,3.64,4.76,6.08,5.88,7.26l0,40.68H91C92.54,126.68,94.82,107.49,95.19,105.11Z"/></g><g id="Shapes"><circle class="cls-3" cx="197.46" cy="55.26" r="35"/><path class="cls-4" d="M173.19,30a35,35,0,1,0,49.47,49.47Z"/><path class="cls-5" d="M170.85,61.28a1.47,1.47,0,0,1-1.48-1.48,1.46,1.46,0,0,1,.42-1.06,1.42,1.42,0,0,1,1.05-.43,1.45,1.45,0,0,1,.58.12,1.55,1.55,0,0,1,.47.31,1.48,1.48,0,0,1,.45,1.07,1.37,1.37,0,0,1-.12.58,1.59,1.59,0,0,1-.32.47,1.48,1.48,0,0,1-.47.32A1.45,1.45,0,0,1,170.85,61.28Z"/><path class="cls-5" d="M190.7,61l-12.24-17.7-.45-.69a4.5,4.5,0,0,1-.36-.69h-.08q0,.28.05.77t0,1.23V61h-2V38.91h2.26l12,17.49.5.78.41.67h.08q-.06-.51-.09-1.14t0-1.4V38.91h2.06V61Z"/><path class="cls-5" d="M197,61V38.91h10.75v1.88H199v8.09h8.06v1.85H199v8.38h9.2V61Z"/><path class="cls-5" d="M219.18,40.79V61h-2V40.79h-6.35V38.91h14.77v1.88Z"/><path class="cls-5" d="M191.39,71.14a4.83,4.83,0,0,1-2.24.47,3.66,3.66,0,0,1-2.78-1.09,4,4,0,0,1-1-2.87,4.18,4.18,0,0,1,1.17-3.09,4,4,0,0,1,3-1.18,4.88,4.88,0,0,1,1.92.33V65a3.42,3.42,0,0,0-1.78-.48,2.79,2.79,0,0,0-2.1.83,3,3,0,0,0-.8,2.21,2.9,2.9,0,0,0,.75,2.1,2.61,2.61,0,0,0,2,.78,3.53,3.53,0,0,0,2-.53Z"/><path class="cls-5" d="M195.28,71.6a2.82,2.82,0,0,1-2.1-.8,2.88,2.88,0,0,1-.79-2.11,2.81,2.81,0,0,1,3-3,2.73,2.73,0,0,1,2.08.78,3,3,0,0,1,.74,2.17,3,3,0,0,1-.8,2.18A2.88,2.88,0,0,1,195.28,71.6Zm.06-4.93a1.47,1.47,0,0,0-1.19.53,2.21,2.21,0,0,0-.44,1.46,2.08,2.08,0,0,0,.44,1.41,1.49,1.49,0,0,0,1.19.51,1.41,1.41,0,0,0,1.17-.51,2.23,2.23,0,0,0,.41-1.44,2.27,2.27,0,0,0-.41-1.45A1.41,1.41,0,0,0,195.34,66.68Z"/><path class="cls-5" d="M202.85,67a1.07,1.07,0,0,0-.67-.18,1.15,1.15,0,0,0-1,.52,2.31,2.31,0,0,0-.38,1.41v2.72h-1.29V65.78h1.29V67h0a2,2,0,0,1,.58-.94,1.31,1.31,0,0,1,.87-.34,1.09,1.09,0,0,1,.53.11Z"/><path class="cls-5" d="M208.47,69H204.6a1.64,1.64,0,0,0,.49,1.22,1.81,1.81,0,0,0,1.27.43,2.81,2.81,0,0,0,1.67-.55v1a3.82,3.82,0,0,1-2.06.49,2.54,2.54,0,0,1-2-.78,3.1,3.1,0,0,1-.71-2.18,3,3,0,0,1,.79-2.16,2.57,2.57,0,0,1,2-.84,2.24,2.24,0,0,1,1.81.75,3.11,3.11,0,0,1,.64,2.08Zm-1.24-.91A1.66,1.66,0,0,0,206.9,67a1.1,1.1,0,0,0-.89-.39,1.25,1.25,0,0,0-.94.41,1.85,1.85,0,0,0-.48,1.06Z"/><polygon class="cls-5" points="284.02 34.04 257.46 34.04 244.18 57.04 257.46 80.04 284.02 80.04 297.3 57.04 284.02 34.04"/><polygon class="cls-5" points="326.02 58.04 299.46 58.04 286.18 81.04 299.46 104.04 326.02 104.04 339.3 81.04 326.02 58.04"/><polygon class="cls-5" points="326.02 10.04 299.46 10.04 286.18 33.04 299.46 56.04 326.02 56.04 339.3 33.04 326.02 10.04"/><polygon class="cls-6" points="255 56.04 255 46.17 267 44.49 267 56.04 255 56.04"/><polygon class="cls-6" points="255 66.91 255 57.04 267 57.04 267 68.59 255 66.91"/><polygon class="cls-6" points="268 44.43 284 42.26 284 56.04 268 56.04 268 44.43"/><polygon class="cls-6" points="268 68.65 268 57.04 284 57.04 284 70.82 268 68.65"/><path class="cls-6" d="M300.36,76a1.23,1.23,0,0,1-.86-.33,1.07,1.07,0,0,1-.36-.83,1.1,1.1,0,0,1,.36-.83,1.21,1.21,0,0,1,.86-.33,1.25,1.25,0,0,1,.88.33,1.09,1.09,0,0,1,.36.83,1.08,1.08,0,0,1-.36.81A1.24,1.24,0,0,1,300.36,76Zm1,10.89h-2v-9h2Z"/><path class="cls-6" d="M309.45,87.12a5.67,5.67,0,0,1-4.36-1.77,6.48,6.48,0,0,1-1.64-4.6,6.87,6.87,0,0,1,1.67-4.85,5.87,5.87,0,0,1,4.54-1.81,5.54,5.54,0,0,1,4.28,1.76,6.52,6.52,0,0,1,1.62,4.6,6.9,6.9,0,0,1-1.66,4.88A5.76,5.76,0,0,1,309.45,87.12Zm.1-11.19a3.51,3.51,0,0,0-2.82,1.29,5.91,5.91,0,0,0,0,6.79,3.4,3.4,0,0,0,2.76,1.28,3.56,3.56,0,0,0,2.86-1.22,5.1,5.1,0,0,0,1-3.42,5.35,5.35,0,0,0-1-3.49A3.43,3.43,0,0,0,309.55,75.94Z"/><path class="cls-6" d="M317.28,86.41V84.26a3.3,3.3,0,0,0,.69.47,5.29,5.29,0,0,0,.85.36,6.68,6.68,0,0,0,.9.22,4.78,4.78,0,0,0,.83.08,3.53,3.53,0,0,0,2-.44,1.45,1.45,0,0,0,.65-1.27,1.39,1.39,0,0,0-.22-.78,2.26,2.26,0,0,0-.6-.6,6.33,6.33,0,0,0-.91-.52l-1.12-.52q-.64-.34-1.2-.69a5.11,5.11,0,0,1-1-.78,3.24,3.24,0,0,1-.64-1,3.13,3.13,0,0,1-.23-1.26,2.89,2.89,0,0,1,.4-1.54,3.36,3.36,0,0,1,1.05-1.08,4.82,4.82,0,0,1,1.49-.63,7.07,7.07,0,0,1,1.71-.21,6.88,6.88,0,0,1,2.88.45v2.07a4.6,4.6,0,0,0-2.76-.77,4.93,4.93,0,0,0-.93.09,2.74,2.74,0,0,0-.83.29,1.78,1.78,0,0,0-.59.52,1.27,1.27,0,0,0-.23.76,1.45,1.45,0,0,0,.18.73,1.88,1.88,0,0,0,.51.56,5.3,5.3,0,0,0,.83.5q.49.24,1.13.52t1.24.72a5.91,5.91,0,0,1,1,.83,3.71,3.71,0,0,1,.7,1,3,3,0,0,1,.26,1.27,3,3,0,0,1-1.43,2.69,4.64,4.64,0,0,1-1.51.6,8.5,8.5,0,0,1-1.8.18,7.65,7.65,0,0,1-.78,0c-.31,0-.62-.08-.95-.14a8.69,8.69,0,0,1-.91-.22A2.89,2.89,0,0,1,317.28,86.41Z"/><path class="cls-6" d="M321,26c0-3-.88-5.78-3.29-7.52l1.37-3.26a1,1,0,1,0-1.79-.75l-.87,2.07-.5.91a11,11,0,0,0-8.85,0l-.49-.89-.88-2.08a1,1,0,1,0-1.79.75l1.37,3.25C302.88,20.25,302,23,302,26Z"/><path class="cls-5" d="M316,20.13a1,1,0,1,1-1,1,1,1,0,0,1,1-1Z"/><circle class="cls-5" cx="306.99" cy="21.13" r="1"/><path class="cls-6" d="M322,29.12a2,2,0,0,1,4,0v11a2,2,0,1,1-4,0Z"/><polygon class="cls-6" points="302 27.12 302 27.12 302 27.12 302 27.12"/><path class="cls-6" d="M302,27V42.16c0,1.3.65,1.88,2,1.88h2v6a2,2,0,0,0,4,0V44h3v6a2,2,0,0,0,4,0V44h2.07A1.93,1.93,0,0,0,321,42.1V27Z"/><path class="cls-6" d="M297,29.12a2,2,0,0,1,4,0v11a2,2,0,1,1-4,0Z"/></g></svg>